{
  "accessors": [
    {
      "bufferView": 2,
      "componentType": 5126,
      "count": 626,
      "max": [
        71.813789367675781,
        41.835037231445312,
        90.688255310058594
      ],
      "min": [
        -71.813789367675781,
        -41.835037231445312,
        -90.688255310058594
      ],
      "type": "VEC3"
    },
    {
      "bufferView": 2,
      "byteOffset": 7512,
      "componentType": 5126,
      "count": 626,
      "max": [
        0.99928021430969238,
        0.99961143732070923,
        1
      ],
      "min": [
        -0.99928021430969238,
        -0.99841940402984619,
        -0.99927151203155518
      ],
      "type": "VEC3"
    },
    {
      "bufferView": 3,
      "componentType": 5126,
      "count": 626,
      "max": [
        0.9996839165687561,
        0.99995130300521851,
        0.99872374534606934,
        1
      ],
      "min": [
        -0.9996839165687561,
        -0.63347232341766357,
        -0.86064141988754272,
        -1
      ],
      "type": "VEC4"
    },
    {
      "bufferView": 1,
      "componentType": 5126,
      "count": 626,
      "max": [
        0.97902959585189819,
        0.99154824018478394
      ],
      "min": [
        0.02475103922188282,
        0.014248251914978027
      ],
      "type": "VEC2"
    },
    {
      "bufferView": 0,
      "componentType": 5125,
      "count": 1152,
      "max": [
        625
      ],
      "min": [
        0
      ],
      "type": "SCALAR"
    },
    {
      "bufferView": 2,
      "byteOffset": 15024,
      "componentType": 5126,
      "count": 232,
      "max": [
        120.74867248535156,
        28.573667526245117,
        202.06398010253906
      ],
      "min": [
        -120.74867248535156,
        -27.715456008911133,
        -48.255718231201172
      ],
      "type": "VEC3"
    },
    {
      "bufferView": 2,
      "byteOffset": 17808,
      "componentType": 5126,
      "count": 232,
      "max": [
        0.99749124050140381,
        0.99832648038864136,
        0.62906736135482788
      ],
      "min": [
        -0.99749124050140381,
        -0.99817955493927002,
        -0.99852573871612549
      ],
      "type": "VEC3"
    },
    {
      "bufferView": 3,
      "byteOffset": 10016,
      "componentType": 5126,
      "count": 232,
      "max": [
        0.9998089075088501,
        0.63237065076828003,
        0.99882251024246216,
        1
      ],
      "min": [
        -0.9998089075088501,
        -0.58430689573287964,
        -0.93756991624832153,
        -1
      ],
      "type": "VEC4"
    },
    {
      "bufferView": 1,
      "byteOffset": 5008,
      "componentType": 5126,
      "count": 232,
      "max": [
        0.97315400838851929,
        0.98685258626937866
      ],
      "min": [
        0.022470936179161072,
        0.02344512939453125
      ],
      "type": "VEC2"
    },
    {
      "bufferView": 0,
      "byteOffset": 4608,
      "componentType": 5125,
      "count": 552,
      "max": [
        231
      ],
      "min": [
        0
      ],
      "type": "SCALAR"
    },
    {
      "bufferView": 2,
      "byteOffset": 20592,
      "componentType": 5126,
      "count": 276,
      "max": [
        61.843971252441406,
        8.2912473678588867,
        99.663032531738281
      ],
      "min": [
        -61.843971252441406,
        -8.2912473678588867,
        -99.663032531738281
      ],
      "type": "VEC3"
    },
    {
      "bufferView": 2,
      "byteOffset": 23904,
      "componentType": 5126,
      "count": 276,
      "max": [
        1,
        1,
        0.62119430303573608
      ],
      "min": [
        -1,
        -1,
        -0.98606395721435547
      ],
      "type": "VEC3"
    },
    {
      "bufferView": 3,
      "byteOffset": 13728,
      "componentType": 5126,
      "count": 276,
      "max": [
        0.99942553043365479,
        0.9998968243598938,
        0.23607029020786285,
        1
      ],
      "min": [
        -0.99942553043365479,
        -0.99999803304672241,
        -0.61700069904327393,
        -1
      ],
      "type": "VEC4"
    },
    {
      "bufferView": 1,
      "byteOffset": 6864,
      "componentType": 5126,
      "count": 276,
      "max": [
        0.51429164409637451,
        0.98977184295654297
      ],
      "min": [
        0.054524816572666168,
        0.014987587928771973
      ],
      "type": "VEC2"
    },
    {
      "bufferView": 0,
      "byteOffset": 6816,
      "componentType": 5125,
      "count": 576,
      "max": [
        275
      ],
      "min": [
        0
      ],
      "type": "SCALAR"
    }
  ],
  "asset": {
    "extras": {
      "author": "Trashbot Studios (https://sketchfab.com/insectscorch)",
      "license": "CC-BY-4.0 (http://creativecommons.org/licenses/by/4.0/)",
      "source": "https://sketchfab.com/3d-models/space-ship-for-games-b1a1d1309a344390a08e60c08eb1248b",
      "title": "Space Ship for Games"
    },
    "generator": "Sketchfab-6.64.0",
    "version": "2.0"
  },
  "bufferViews": [
    {
      "buffer": 0,
      "byteLength": 9120,
      "byteOffset": 0,
      "name": "floatBufferViews",
      "target": 34963
    },
    {
      "buffer": 0,
      "byteLength": 9072,
      "byteOffset": 9120,
      "byteStride": 8,
      "name": "floatBufferViews",
      "target": 34962
    },
    {
      "buffer": 0,
      "byteLength": 27216,
      "byteOffset": 18192,
      "byteStride": 12,
      "name": "floatBufferViews",
      "target": 34962
    },
    {
      "buffer": 0,
      "byteLength": 18144,
      "byteOffset": 45408,
      "byteStride": 16,
      "name": "floatBufferViews",
      "target": 34962
    }
  ],
  "buffers": [
    {
      "byteLength": 63552,
      "uri": "scene.bin"
    }
  ],
  "images": [
    {
      "uri": "textures/mat_cuerpo_baseColor.jpeg"
    },
    {
      "uri": "textures/mat_alas_baseColor.jpeg"
    },
    {
      "uri": "textures/mat_canon_baseColor.jpeg"
    }
  ],
  "materials": [
    {
      "doubleSided": true,
      "emissiveFactor": [
        0,
        0,
        0
      ],
      "name": "mat_cuerpo",
      "pbrMetallicRoughness": {
        "baseColorFactor": [
          1,
          1,
          1,
          1
        ],
        "baseColorTexture": {
          "index": 0,
          "texCoord": 0
        },
        "metallicFactor": 0,
        "roughnessFactor": 0.59999999999999998
      }
    },
    {
      "doubleSided": true,
      "emissiveFactor": [
        0,
        0,
        0
      ],
      "name": "mat_alas",
      "pbrMetallicRoughness": {
        "baseColorFactor": [
          1,
          1,
          1,
          1
        ],
        "baseColorTexture": {
          "index": 1,
          "texCoord": 0
        },
        "metallicFactor": 0,
        "roughnessFactor": 0.59999999999999998
      }
    },
    {
      "doubleSided": true,
      "emissiveFactor": [
        0,
        0,
        0
      ],
      "name": "mat_canon",
      "pbrMetallicRoughness": {
        "baseColorFactor": [
          1,
          1,
          1,
          1
        ],
        "baseColorTexture": {
          "index": 2,
          "texCoord": 0
        },
        "metallicFactor": 0,
        "roughnessFactor": 0.59999999999999998
      }
    }
  ],
  "meshes": [
    {
      "primitives": [
        {
          "attributes": {
            "NORMAL": 1,
            "POSITION": 0,
            "TANGENT": 2,
            "TEXCOORD_0": 3
          },
          "indices": 4,
          "material": 0,
          "mode": 4
        }
      ]
    },
    {
      "primitives": [
        {
          "attributes": {
            "NORMAL": 6,
            "POSITION": 5,
            "TANGENT": 7,
            "TEXCOORD_0": 8
          },
          "indices": 9,
          "material": 1,
          "mode": 4
        }
      ]
    },
    {
      "primitives": [
        {
          "attributes": {
            "NORMAL": 11,
            "POSITION": 10,
            "TANGENT": 12,
            "TEXCOORD_0": 13
          },
          "indices": 14,
          "material": 2,
          "mode": 4
        }
      ]
    }
  ],
  "nodes": [
    {
      "children": [
        1
      ],
      "name": "RootNode (gltf orientation matrix)",
      "rotation": [
        -0.70710678118654746,
        -0,
        -0,
        0.70710678118654757
      ]
    },
    {
      "children": [
        2
      ],
      "name": "RootNode (model correction matrix)"
    },
    {
      "children": [
        3
      ],
      "matrix": [
        1,
        0,
        0,
        0,
        0,
        0,
        1,
        0,
        0,
        -1,
        0,
        0,
        0,
        0,
        0,
        1
      ],
      "name": "d66f3dbd3ed2409d8b0cbafaae3526f4.fbx"
    },
    {
      "children": [
        4
      ],
      "name": "RootNode"
    },
    {
      "children": [
        5,
        7,
        9
      ],
      "matrix": [
        1,
        0,
        0,
        0,
        0,
        1,
        0,
        0,
        0,
        0,
        1,
        0,
        0,
        50,
        0,
        1
      ],
      "name": "nave"
    },
    {
      "children": [
        6
      ],
      "matrix": [
        1,
        0,
        0,
        0,
        0,
        1,
        0,
        0,
        0,
        0,
        1,
        0,
        0,
        18.321730464946501,
        14.626462751771101,
        1
      ],
      "name": "cuerpo"
    },
    {
      "mesh": 0,
      "name": ""
    },
    {
      "children": [
        8
      ],
      "matrix": [
        1,
        0,
        0,
        0,
        0,
        1,
        0,
        0,
        0,
        0,
        1,
        0,
        0,
        -8.1443403317602296,
        -73.009108981173696,
        1
      ],
      "name": "alas"
    },
    {
      "mesh": 1,
      "name": ""
    },
    {
      "children": [
        10
      ],
      "matrix": [
        1,
        0,
        0,
        0,
        0,
        1,
        0,
        0,
        0,
        0,
        1,
        0,
        -1.5987211554602302e-14,
        39.966924889283703,
        45.574383792692899,
        1
      ],
      "name": "canon"
    },
    {
      "mesh": 2,
      "name": ""
    }
  ],
  "samplers": [
    {
      "magFilter": 9729,
      "minFilter": 9987,
      "wrapS": 10497,
      "wrapT": 10497
    }
  ],
  "scene": 0,
  "scenes": [
    {
      "name": "OSG_Scene",
      "nodes": [
        0
      ]
    }
  ],
  "textures": [
    {
      "sampler": 0,
      "source": 0
    },
    {
      "sampler": 0,
      "source": 1
    },
    {
      "sampler": 0,
      "source": 2
    }
  ]
}

