{
  "accessors": [
    {
      "bufferView": 2,
      "componentType": 5126,
      "count": 148,
      "max": [
        0.71043998003005981,
        0.57440000772476196,
        1.0726200342178345
      ],
      "min": [
        -0.71043998003005981,
        -0.57440000772476196,
        -1.0726200342178345
      ],
      "type": "VEC3"
    },
    {
      "bufferView": 2,
      "byteOffset": 1776,
      "componentType": 5126,
      "count": 148,
      "max": [
        1,
        1,
        1
      ],
      "min": [
        -1,
        -1,
        -1
      ],
      "type": "VEC3"
    },
    {
      "bufferView": 0,
      "componentType": 5125,
      "count": 288,
      "max": [
        147
      ],
      "min": [
        0
      ],
      "type": "SCALAR"
    },
    {
      "bufferView": 2,
      "byteOffset": 3552,
      "componentType": 5126,
      "count": 170,
      "max": [
        1.0199400186538696,
        0.28720000386238098,
        1.0726200342178345
      ],
      "min": [
        -1.0199400186538696,
        -0.28720000386238098,
        -1.0726200342178345
      ],
      "type": "VEC3"
    },
    {
      "bufferView": 2,
      "byteOffset": 5592,
      "componentType": 5126,
      "count": 170,
      "max": [
        1,
        1,
        1
      ],
      "min": [
        -1,
        -1,
        -1
      ],
      "type": "VEC3"
    },
    {
      "bufferView": 0,
      "byteOffset": 1152,
      "componentType": 5125,
      "count": 336,
      "max": [
        169
      ],
      "min": [
        0
      ],
      "type": "SCALAR"
    },
    {
      "bufferView": 2,
      "byteOffset": 7632,
      "componentType": 5126,
      "count": 148,
      "max": [
        0.71043998003005981,
        0.57440000772476196,
        1.0726200342178345
      ],
      "min": [
        -0.71043998003005981,
        -0.57440000772476196,
        -1.0726200342178345
      ],
      "type": "VEC3"
    },
    {
      "bufferView": 2,
      "byteOffset": 9408,
      "componentType": 5126,
      "count": 148,
      "max": [
        1,
        1,
        1
      ],
      "min": [
        -1,
        -1,
        -1
      ],
      "type": "VEC3"
    },
    {
      "bufferView": 0,
      "byteOffset": 2496,
      "componentType": 5125,
      "count": 288,
      "max": [
        147
      ],
      "min": [
        0
      ],
      "type": "SCALAR"
    },
    {
      "bufferView": 2,
      "byteOffset": 11184,
      "componentType": 5126,
      "count": 170,
      "max": [
        1.0199400186538696,
        0.28720000386238098,
        1.0726200342178345
      ],
      "min": [
        -1.0199400186538696,
        -0.28720000386238098,
        -1.0726200342178345
      ],
      "type": "VEC3"
    },
    {
      "bufferView": 2,
      "byteOffset": 13224,
      "componentType": 5126,
      "count": 170,
      "max": [
        1,
        1,
        1
      ],
      "min": [
        -1,
        -1,
        -1
      ],
      "type": "VEC3"
    },
    {
      "bufferView": 0,
      "byteOffset": 3648,
      "componentType": 5125,
      "count": 336,
      "max": [
        169
      ],
      "min": [
        0
      ],
      "type": "SCALAR"
    },
    {
      "bufferView": 2,
      "byteOffset": 15264,
      "componentType": 5126,
      "count": 3147,
      "max": [
        0.43200001120567322,
        3.1748099327087402,
        0.87410002946853638
      ],
      "min": [
        -0.43200001120567322,
        -17.018329620361328,
        -1.4235399961471558
      ],
      "type": "VEC3"
    },
    {
      "bufferView": 2,
      "byteOffset": 53028,
      "componentType": 5126,
      "count": 3147,
      "max": [
        1,
        1,
        1
      ],
      "min": [
        -1,
        -1,
        -1
      ],
      "type": "VEC3"
    },
    {
      "bufferView": 1,
      "componentType": 5126,
      "count": 3147,
      "max": [
        0,
        0
      ],
      "min": [
        0,
        0
      ],
      "type": "VEC2"
    },
    {
      "bufferView": 0,
      "byteOffset": 4992,
      "componentType": 5125,
      "count": 7092,
      "max": [
        3146
      ],
      "min": [
        0
      ],
      "type": "SCALAR"
    },
    {
      "bufferView": 2,
      "byteOffset": 90792,
      "componentType": 5126,
      "count": 925,
      "max": [
        0.25185000896453857,
        2.7293300628662109,
        0.66013002395629883
      ],
      "min": [
        -0.25185000896453857,
        -17.018329620361328,
        -1.4235399961471558
      ],
      "type": "VEC3"
    },
    {
      "bufferView": 2,
      "byteOffset": 101892,
      "componentType": 5126,
      "count": 925,
      "max": [
        1,
        0.98208093643188477,
        0.99999904632568359
      ],
      "min": [
        -1,
        -0.99343359470367432,
        -1
      ],
      "type": "VEC3"
    },
    {
      "bufferView": 0,
      "byteOffset": 33360,
      "componentType": 5125,
      "count": 1842,
      "max": [
        924
      ],
      "min": [
        0
      ],
      "type": "SCALAR"
    },
    {
      "bufferView": 2,
      "byteOffset": 112992,
      "componentType": 5126,
      "count": 4837,
      "max": [
        0.3276900053024292,
        3.1748099327087402,
        0.87410002946853638
      ],
      "min": [
        -0.3276900053024292,
        -16.754230499267578,
        -1.1912300586700439
      ],
      "type": "VEC3"
    },
    {
      "bufferView": 2,
      "byteOffset": 171036,
      "componentType": 5126,
      "count": 4837,
      "max": [
        1,
        1,
        1
      ],
      "min": [
        -1,
        -1,
        -1
      ],
      "type": "VEC3"
    },
    {
      "bufferView": 0,
      "byteOffset": 40728,
      "componentType": 5125,
      "count": 9852,
      "max": [
        4836
      ],
      "min": [
        0
      ],
      "type": "SCALAR"
    },
    {
      "bufferView": 2,
      "byteOffset": 229080,
      "componentType": 5126,
      "count": 1392,
      "max": [
        0.079609997570514679,
        0.36386999487876892,
        0.36410999298095703
      ],
      "min": [
        -0.079609997570514679,
        -0.36489000916481018,
        -0.36465001106262207
      ],
      "type": "VEC3"
    },
    {
      "bufferView": 2,
      "byteOffset": 245784,
      "componentType": 5126,
      "count": 1392,
      "max": [
        1,
        0.9951854944229126,
        0.99518442153930664
      ],
      "min": [
        -1,
        -0.9951854944229126,
        -0.99518442153930664
      ],
      "type": "VEC3"
    },
    {
      "bufferView": 1,
      "byteOffset": 25176,
      "componentType": 5126,
      "count": 1392,
      "max": [
        0,
        0
      ],
      "min": [
        0,
        0
      ],
      "type": "VEC2"
    },
    {
      "bufferView": 0,
      "byteOffset": 80136,
      "componentType": 5125,
      "count": 2412,
      "max": [
        1391
      ],
      "min": [
        0
      ],
      "type": "SCALAR"
    },
    {
      "bufferView": 2,
      "byteOffset": 262488,
      "componentType": 5126,
      "count": 222,
      "max": [
        0.067440003156661987,
        0.304749995470047,
        0.30498000979423523
      ],
      "min": [
        -0.067440003156661987,
        -0.30577000975608826,
        -0.30553001165390015
      ],
      "type": "VEC3"
    },
    {
      "bufferView": 2,
      "byteOffset": 265152,
      "componentType": 5126,
      "count": 222,
      "max": [
        1,
        1.9999999494757503e-05,
        0
      ],
      "min": [
        -1,
        -1.9999999494757503e-05,
        -9.9999997473787516e-06
      ],
      "type": "VEC3"
    },
    {
      "bufferView": 0,
      "byteOffset": 89784,
      "componentType": 5125,
      "count": 564,
      "max": [
        221
      ],
      "min": [
        0
      ],
      "type": "SCALAR"
    },
    {
      "bufferView": 2,
      "byteOffset": 267816,
      "componentType": 5126,
      "count": 160,
      "max": [
        0.094630002975463867,
        0.27162998914718628,
        0.19593000411987305
      ],
      "min": [
        -0.094630002975463867,
        -0.27265998721122742,
        -0.19648000597953796
      ],
      "type": "VEC3"
    },
    {
      "bufferView": 2,
      "byteOffset": 269736,
      "componentType": 5126,
      "count": 160,
      "max": [
        1,
        0.95694160461425781,
        0.9807855486869812
      ],
      "min": [
        -1,
        -0.95694160461425781,
        -0.9807855486869812
      ],
      "type": "VEC3"
    },
    {
      "bufferView": 0,
      "byteOffset": 92040,
      "componentType": 5125,
      "count": 264,
      "max": [
        159
      ],
      "min": [
        0
      ],
      "type": "SCALAR"
    },
    {
      "bufferView": 3,
      "componentType": 5126,
      "count": 19,
      "max": [
        0.79167002439498901
      ],
      "min": [
        0.041669998317956924
      ],
      "type": "SCALAR"
    },
    {
      "bufferView": 5,
      "componentType": 5126,
      "count": 19,
      "max": [
        0.33577001094818115,
        0.48245999217033386,
        0.86383998394012451,
        1
      ],
      "min": [
        -0.99961000680923462,
        -0.90644001960754395,
        -0.90830999612808228,
        -0.0044999998062849045
      ],
      "type": "VEC4"
    },
    {
      "bufferView": 3,
      "byteOffset": 76,
      "componentType": 5126,
      "count": 19,
      "max": [
        0.79167002439498901
      ],
      "min": [
        0.041669998317956924
      ],
      "type": "SCALAR"
    },
    {
      "bufferView": 4,
      "componentType": 5126,
      "count": 19,
      "max": [
        0,
        2.5477900505065918,
        1.7525899410247803
      ],
      "min": [
        0,
        2.4290599822998047,
        1.4566700458526611
      ],
      "type": "VEC3"
    },
    {
      "bufferView": 3,
      "byteOffset": 152,
      "componentType": 5126,
      "count": 1,
      "max": [
        0.041669998317956924
      ],
      "min": [
        0.041669998317956924
      ],
      "type": "SCALAR"
    },
    {
      "bufferView": 5,
      "byteOffset": 304,
      "componentType": 5126,
      "count": 1,
      "max": [
        0.98120999336242676,
        0,
        0,
        0.19291999936103821
      ],
      "min": [
        0.98120999336242676,
        0,
        0,
        0.19291999936103821
      ],
      "type": "VEC4"
    },
    {
      "bufferView": 3,
      "byteOffset": 156,
      "componentType": 5126,
      "count": 19,
      "max": [
        0.79167002439498901
      ],
      "min": [
        0.041669998317956924
      ],
      "type": "SCALAR"
    },
    {
      "bufferView": 4,
      "byteOffset": 228,
      "componentType": 5126,
      "count": 19,
      "max": [
        0,
        3.241689920425415,
        1.8192199468612671
      ],
      "min": [
        0,
        3.0875899791717529,
        1.4393800497055054
      ],
      "type": "VEC3"
    },
    {
      "bufferView": 3,
      "byteOffset": 232,
      "componentType": 5126,
      "count": 1,
      "max": [
        0.041669998317956924
      ],
      "min": [
        0.041669998317956924
      ],
      "type": "SCALAR"
    },
    {
      "bufferView": 5,
      "byteOffset": 320,
      "componentType": 5126,
      "count": 1,
      "max": [
        0.98120999336242676,
        0,
        0,
        0.19291999936103821
      ],
      "min": [
        0.98120999336242676,
        0,
        0,
        0.19291999936103821
      ],
      "type": "VEC4"
    }
  ],
  "animations": [
    {
      "channels": [
        {
          "sampler": 0,
          "target": {
            "node": 15,
            "path": "rotation"
          }
        },
        {
          "sampler": 1,
          "target": {
            "node": 8,
            "path": "translation"
          }
        },
        {
          "sampler": 2,
          "target": {
            "node": 8,
            "path": "rotation"
          }
        },
        {
          "sampler": 3,
          "target": {
            "node": 5,
            "path": "translation"
          }
        },
        {
          "sampler": 4,
          "target": {
            "node": 5,
            "path": "rotation"
          }
        }
      ],
      "name": "Take 01",
      "samplers": [
        {
          "input": 32,
          "interpolation": "LINEAR",
          "output": 33
        },
        {
          "input": 34,
          "interpolation": "LINEAR",
          "output": 35
        },
        {
          "input": 36,
          "interpolation": "LINEAR",
          "output": 37
        },
        {
          "input": 38,
          "interpolation": "LINEAR",
          "output": 39
        },
        {
          "input": 40,
          "interpolation": "LINEAR",
          "output": 41
        }
      ]
    }
  ],
  "asset": {
    "extras": {
      "author": "Wawann (https://sketchfab.com/Wawann)",
      "license": "CC-BY-4.0 (http://creativecommons.org/licenses/by/4.0/)",
      "source": "https://sketchfab.com/models/e3caffae38ff43aea3476cea700b6a00",
      "title": "Neon Blade - Sword"
    },
    "generator": "Sketchfab-3.49.4",
    "version": "2.0"
  },
  "bufferViews": [
    {
      "buffer": 0,
      "byteLength": 93096,
      "byteOffset": 0,
      "name": "floatBufferViews",
      "target": 34963
    },
    {
      "buffer": 0,
      "byteLength": 36312,
      "byteOffset": 93096,
      "byteStride": 8,
      "name": "floatBufferViews",
      "target": 34962
    },
    {
      "buffer": 0,
      "byteLength": 271656,
      "byteOffset": 129408,
      "byteStride": 12,
      "name": "floatBufferViews",
      "target": 34962
    },
    {
      "buffer": 0,
      "byteLength": 236,
      "byteOffset": 401064,
      "name": "floatBufferViews"
    },
    {
      "buffer": 0,
      "byteLength": 456,
      "byteOffset": 401300,
      "byteStride": 12,
      "name": "floatBufferViews"
    },
    {
      "buffer": 0,
      "byteLength": 336,
      "byteOffset": 401756,
      "byteStride": 16,
      "name": "floatBufferViews"
    }
  ],
  "buffers": [
    {
      "byteLength": 402092,
      "uri": "scene.bin"
    }
  ],
  "images": [
    {
      "uri": "textures/Material_baseColor.jpeg"
    }
  ],
  "materials": [
    {
      "doubleSided": true,
      "name": "Material",
      "pbrMetallicRoughness": {
        "baseColorFactor": [
          0.68045455470000005,
          0.68045455470000005,
          0.68045455470000005,
          1
        ],
        "baseColorTexture": {
          "index": 0,
          "texCoord": 0
        },
        "metallicFactor": 0.80772728199999999,
        "roughnessFactor": 0.32145579270000002
      }
    },
    {
      "doubleSided": true,
      "emissiveFactor": [
        0,
        1,
        1
      ],
      "name": "Material.001",
      "pbrMetallicRoughness": {
        "baseColorFactor": [
          0,
          1,
          0.95236369480000005,
          1
        ],
        "metallicFactor": 1,
        "roughnessFactor": 0
      }
    },
    {
      "doubleSided": true,
      "emissiveFactor": [
        0,
        0,
        0
      ],
      "name": "Material.003",
      "pbrMetallicRoughness": {
        "baseColorFactor": [
          0,
          0,
          0,
          1
        ],
        "metallicFactor": 0.098636372900000005,
        "roughnessFactor": 0.70469697890000005
      }
    },
    {
      "doubleSided": true,
      "emissiveFactor": [
        0,
        1,
        1
      ],
      "name": "Material.004",
      "pbrMetallicRoughness": {
        "baseColorFactor": [
          1,
          1,
          1,
          1
        ],
        "metallicFactor": 1,
        "roughnessFactor": 0.40000000000000002
      }
    },
    {
      "doubleSided": true,
      "emissiveFactor": [
        0,
        0,
        0
      ],
      "name": "Material.002",
      "pbrMetallicRoughness": {
        "baseColorFactor": [
          0,
          0,
          0,
          1
        ],
        "metallicFactor": 1,
        "roughnessFactor": 0.40000000000000002
      }
    }
  ],
  "meshes": [
    {
      "name": "Cube.003_0",
      "primitives": [
        {
          "attributes": {
            "NORMAL": 1,
            "POSITION": 0
          },
          "indices": 2,
          "material": 3,
          "mode": 4
        }
      ]
    },
    {
      "name": "Cube.003_1",
      "primitives": [
        {
          "attributes": {
            "NORMAL": 4,
            "POSITION": 3
          },
          "indices": 5,
          "material": 4,
          "mode": 4
        }
      ]
    },
    {
      "name": "Cube.002_0",
      "primitives": [
        {
          "attributes": {
            "NORMAL": 7,
            "POSITION": 6
          },
          "indices": 8,
          "material": 1,
          "mode": 4
        }
      ]
    },
    {
      "name": "Cube.002_1",
      "primitives": [
        {
          "attributes": {
            "NORMAL": 10,
            "POSITION": 9
          },
          "indices": 11,
          "material": 2,
          "mode": 4
        }
      ]
    },
    {
      "name": "Cube_0",
      "primitives": [
        {
          "attributes": {
            "NORMAL": 13,
            "POSITION": 12,
            "TEXCOORD_0": 14
          },
          "indices": 15,
          "material": 0,
          "mode": 4
        }
      ]
    },
    {
      "name": "Cube_1",
      "primitives": [
        {
          "attributes": {
            "NORMAL": 17,
            "POSITION": 16
          },
          "indices": 18,
          "material": 1,
          "mode": 4
        }
      ]
    },
    {
      "name": "Cube_2",
      "primitives": [
        {
          "attributes": {
            "NORMAL": 20,
            "POSITION": 19
          },
          "indices": 21,
          "material": 2,
          "mode": 4
        }
      ]
    },
    {
      "name": "Cube.001_0",
      "primitives": [
        {
          "attributes": {
            "NORMAL": 23,
            "POSITION": 22,
            "TEXCOORD_0": 24
          },
          "indices": 25,
          "material": 0,
          "mode": 4
        }
      ]
    },
    {
      "name": "Cube.001_1",
      "primitives": [
        {
          "attributes": {
            "NORMAL": 27,
            "POSITION": 26
          },
          "indices": 28,
          "material": 1,
          "mode": 4
        }
      ]
    },
    {
      "name": "Cube.001_2",
      "primitives": [
        {
          "attributes": {
            "NORMAL": 30,
            "POSITION": 29
          },
          "indices": 31,
          "material": 2,
          "mode": 4
        }
      ]
    }
  ],
  "nodes": [
    {
      "children": [
        1
      ],
      "name": "RootNode (gltf orientation matrix)",
      "rotation": [
        -0.70710678118654746,
        -0,
        -0,
        0.70710678118654757
      ]
    },
    {
      "children": [
        2
      ],
      "name": "RootNode (model correction matrix)"
    },
    {
      "children": [
        3,
        5,
        8,
        11,
        15
      ],
      "name": "Root"
    },
    {
      "children": [
        4
      ],
      "matrix": [
        -0.29086000000000006,
        0.95517000000000007,
        -0.05519000000000001,
        0,
        -0.77110000000000001,
        -0.19988000000000003,
        0.60452000000000006,
        0,
        0.56639000000000006,
        0.21839000000000003,
        0.7946700000000001,
        0,
        4.0762500000000008,
        1.00545,
        5.9038600000000008,
        1
      ],
      "name": "Lamp"
    },
    {
      "name": "Lamp"
    },
    {
      "children": [
        6,
        7
      ],
      "name": "Cube.003",
      "rotation": [
        -0.37859156727790833,
        0,
        0,
        0.92556387186050415
      ],
      "scale": [
        -0.06088000163435936,
        -0.17407000064849854,
        -0.48006001114845276
      ],
      "translation": [
        0,
        3.0875899791717529,
        1.4393800497055054
      ]
    },
    {
      "mesh": 0,
      "name": "Cube.003_0"
    },
    {
      "mesh": 1,
      "name": "Cube.003_1"
    },
    {
      "children": [
        9,
        10
      ],
      "name": "Cube.002",
      "rotation": [
        -0.37859156727790833,
        0,
        0,
        0.92556387186050415
      ],
      "scale": [
        -0.06088000163435936,
        -0.17407000064849854,
        -0.48006001114845276
      ],
      "translation": [
        0,
        2.5477900505065918,
        1.7525899410247803
      ]
    },
    {
      "mesh": 2,
      "name": "Cube.002_0"
    },
    {
      "mesh": 3,
      "name": "Cube.002_1"
    },
    {
      "children": [
        12,
        13,
        14
      ],
      "matrix": [
        1,
        0,
        0,
        0,
        0,
        1,
        0,
        0,
        0,
        0,
        1,
        0,
        0,
        7.0219799999999992,
        1.3973100000000001,
        1
      ],
      "name": "Cube"
    },
    {
      "mesh": 4,
      "name": "Cube_0"
    },
    {
      "mesh": 5,
      "name": "Cube_1"
    },
    {
      "mesh": 6,
      "name": "Cube_2"
    },
    {
      "children": [
        16,
        17,
        18
      ],
      "name": "Cube.001",
      "rotation": [
        0.2536102831363678,
        -0.16711018979549408,
        0.044530052691698074,
        0.95172113180160522
      ],
      "translation": [
        0,
        5.1659097671508789,
        1.3814300298690796
      ]
    },
    {
      "mesh": 7,
      "name": "Cube.001_0"
    },
    {
      "mesh": 8,
      "name": "Cube.001_1"
    },
    {
      "mesh": 9,
      "name": "Cube.001_2"
    }
  ],
  "samplers": [
    {
      "magFilter": 9729,
      "minFilter": 9987,
      "wrapS": 10497,
      "wrapT": 10497
    }
  ],
  "scene": 0,
  "scenes": [
    {
      "name": "OSG_Scene",
      "nodes": [
        0
      ]
    }
  ],
  "textures": [
    {
      "sampler": 0,
      "source": 0
    }
  ]
}

